<svg xmlns="http://www.w3.org/2000/svg" xmlns:xlink="http://www.w3.org/1999/xlink" width="500" zoomAndPan="magnify" viewBox="0 0 375 374.999991" height="500" preserveAspectRatio="xMidYMid meet" version="1.0"><defs><clipPath id="6304c3f4c8"><path d="M 3.75 37.5 L 369 37.5 L 369 354.75 L 3.75 354.75 Z M 3.75 37.5 " clip-rule="nonzero"/></clipPath></defs><g clip-path="url(#6304c3f4c8)"><path fill="#000000" d="M 348.121094 37.753906 L 100.238281 37.753906 C 99.554688 37.757812 98.878906 37.792969 98.199219 37.859375 C 97.523438 37.925781 96.851562 38.027344 96.183594 38.160156 C 95.515625 38.296875 94.855469 38.460938 94.203125 38.660156 C 93.554688 38.859375 92.914062 39.089844 92.285156 39.351562 C 91.65625 39.613281 91.042969 39.902344 90.441406 40.226562 C 89.84375 40.546875 89.257812 40.898438 88.695312 41.277344 C 88.128906 41.65625 87.582031 42.0625 87.058594 42.496094 C 86.53125 42.925781 86.027344 43.386719 85.546875 43.867188 C 85.066406 44.347656 84.609375 44.851562 84.179688 45.378906 C 83.75 45.90625 83.34375 46.453125 82.96875 47.019531 C 82.589844 47.585938 82.242188 48.171875 81.921875 48.769531 C 81.601562 49.371094 81.3125 49.988281 81.050781 50.617188 C 80.792969 51.246094 80.5625 51.886719 80.367188 52.535156 C 80.167969 53.1875 80.003906 53.847656 79.871094 54.515625 C 79.742188 55.183594 79.640625 55.855469 79.578125 56.535156 C 79.511719 57.210938 79.476562 57.890625 79.480469 58.570312 L 79.480469 73.789062 L 62.496094 73.789062 C 61.8125 73.789062 61.128906 73.824219 60.449219 73.890625 C 59.769531 73.960938 59.09375 74.058594 58.421875 74.195312 C 57.753906 74.328125 57.089844 74.496094 56.4375 74.695312 C 55.785156 74.894531 55.140625 75.125 54.507812 75.386719 C 53.878906 75.648438 53.261719 75.941406 52.660156 76.261719 C 52.054688 76.585938 51.472656 76.9375 50.902344 77.316406 C 50.335938 77.695312 49.785156 78.105469 49.257812 78.539062 C 48.730469 78.972656 48.222656 79.429688 47.742188 79.914062 C 47.257812 80.394531 46.796875 80.902344 46.363281 81.429688 C 45.929688 81.957031 45.523438 82.507812 45.144531 83.074219 C 44.765625 83.640625 44.414062 84.226562 44.089844 84.828125 C 43.769531 85.433594 43.476562 86.050781 43.214844 86.679688 C 42.953125 87.3125 42.71875 87.953125 42.523438 88.609375 C 42.324219 89.261719 42.15625 89.921875 42.023438 90.59375 C 41.886719 91.265625 41.785156 91.9375 41.71875 92.617188 C 41.648438 93.296875 41.617188 93.980469 41.613281 94.664062 L 41.613281 109.878906 L 24.570312 109.878906 C 23.886719 109.882812 23.207031 109.917969 22.527344 109.988281 C 21.847656 110.058594 21.175781 110.160156 20.503906 110.292969 C 19.835938 110.429688 19.175781 110.597656 18.523438 110.796875 C 17.871094 110.996094 17.230469 111.230469 16.601562 111.492188 C 15.96875 111.753906 15.355469 112.046875 14.753906 112.371094 C 14.152344 112.691406 13.570312 113.042969 13.003906 113.425781 C 12.4375 113.804688 11.890625 114.210938 11.363281 114.644531 C 10.835938 115.078125 10.332031 115.539062 9.847656 116.019531 C 9.367188 116.503906 8.910156 117.011719 8.476562 117.539062 C 8.046875 118.066406 7.640625 118.613281 7.261719 119.179688 C 6.882812 119.75 6.535156 120.332031 6.210938 120.9375 C 5.890625 121.539062 5.597656 122.152344 5.339844 122.785156 C 5.078125 123.414062 4.847656 124.054688 4.648438 124.710938 C 4.453125 125.363281 4.285156 126.023438 4.152344 126.691406 C 4.019531 127.363281 3.917969 128.035156 3.851562 128.714844 C 3.785156 129.394531 3.75 130.074219 3.75 130.757812 L 3.75 334.289062 C 3.75 334.96875 3.785156 335.648438 3.851562 336.328125 C 3.921875 337.003906 4.019531 337.679688 4.15625 338.347656 C 4.289062 339.015625 4.453125 339.675781 4.652344 340.328125 C 4.851562 340.976562 5.082031 341.617188 5.34375 342.25 C 5.605469 342.878906 5.894531 343.492188 6.21875 344.09375 C 6.539062 344.695312 6.890625 345.277344 7.269531 345.84375 C 7.648438 346.410156 8.050781 346.957031 8.484375 347.484375 C 8.917969 348.011719 9.375 348.515625 9.855469 348.996094 C 10.339844 349.480469 10.84375 349.9375 11.371094 350.367188 C 11.898438 350.800781 12.441406 351.207031 13.011719 351.585938 C 13.578125 351.964844 14.160156 352.316406 14.761719 352.636719 C 15.363281 352.957031 15.976562 353.25 16.605469 353.511719 C 17.234375 353.773438 17.878906 354 18.527344 354.199219 C 19.179688 354.398438 19.839844 354.5625 20.507812 354.699219 C 21.179688 354.832031 21.851562 354.933594 22.53125 355 C 23.207031 355.066406 23.886719 355.101562 24.570312 355.101562 L 272.453125 355.101562 C 273.132812 355.101562 273.816406 355.070312 274.492188 355.003906 C 275.171875 354.9375 275.847656 354.835938 276.515625 354.703125 C 277.183594 354.570312 277.84375 354.40625 278.496094 354.210938 C 279.148438 354.011719 279.792969 353.78125 280.421875 353.523438 C 281.050781 353.261719 281.667969 352.96875 282.269531 352.648438 C 282.871094 352.328125 283.453125 351.976562 284.023438 351.597656 C 284.589844 351.21875 285.136719 350.8125 285.664062 350.382812 C 286.191406 349.949219 286.695312 349.492188 287.175781 349.011719 C 287.660156 348.527344 288.117188 348.023438 288.550781 347.496094 C 288.980469 346.96875 289.386719 346.421875 289.765625 345.855469 C 290.144531 345.289062 290.496094 344.703125 290.816406 344.101562 C 291.136719 343.5 291.429688 342.886719 291.691406 342.253906 C 291.949219 341.625 292.179688 340.984375 292.378906 340.332031 C 292.574219 339.679688 292.742188 339.019531 292.875 338.347656 C 293.007812 337.679688 293.105469 337.007812 293.171875 336.328125 C 293.238281 335.648438 293.273438 334.96875 293.273438 334.289062 L 293.273438 319.011719 L 310.253906 319.011719 C 310.9375 319.011719 311.621094 318.976562 312.300781 318.910156 C 312.980469 318.84375 313.652344 318.746094 314.324219 318.613281 C 314.992188 318.480469 315.65625 318.316406 316.308594 318.117188 C 316.960938 317.921875 317.605469 317.691406 318.234375 317.433594 C 318.867188 317.171875 319.484375 316.878906 320.085938 316.558594 C 320.6875 316.238281 321.273438 315.890625 321.839844 315.511719 C 322.410156 315.132812 322.957031 314.726562 323.484375 314.292969 C 324.015625 313.863281 324.519531 313.40625 325.003906 312.921875 C 325.488281 312.441406 325.945312 311.9375 326.378906 311.410156 C 326.8125 310.882812 327.222656 310.335938 327.601562 309.769531 C 327.980469 309.199219 328.332031 308.617188 328.65625 308.015625 C 328.980469 307.414062 329.269531 306.796875 329.535156 306.167969 C 329.796875 305.539062 330.027344 304.894531 330.226562 304.242188 C 330.425781 303.589844 330.59375 302.929688 330.726562 302.261719 C 330.863281 301.589844 330.964844 300.917969 331.03125 300.238281 C 331.097656 299.558594 331.132812 298.878906 331.136719 298.195312 L 331.136719 282.980469 L 348.121094 282.980469 C 348.804688 282.976562 349.484375 282.941406 350.164062 282.875 C 350.84375 282.808594 351.519531 282.707031 352.191406 282.570312 C 352.859375 282.4375 353.523438 282.269531 354.175781 282.070312 C 354.832031 281.871094 355.472656 281.640625 356.105469 281.378906 C 356.734375 281.117188 357.351562 280.824219 357.957031 280.503906 C 358.558594 280.179688 359.144531 279.828125 359.710938 279.449219 C 360.28125 279.070312 360.828125 278.664062 361.355469 278.230469 C 361.882812 277.796875 362.390625 277.335938 362.875 276.851562 C 363.355469 276.371094 363.816406 275.863281 364.25 275.335938 C 364.683594 274.808594 365.089844 274.261719 365.46875 273.691406 C 365.851562 273.125 366.203125 272.539062 366.523438 271.9375 C 366.847656 271.332031 367.140625 270.714844 367.402344 270.085938 C 367.664062 269.453125 367.894531 268.8125 368.09375 268.15625 C 368.292969 267.503906 368.457031 266.84375 368.59375 266.171875 C 368.726562 265.503906 368.828125 264.828125 368.894531 264.148438 C 368.964844 263.46875 369 262.785156 369 262.101562 L 369 58.570312 C 369 57.890625 368.964844 57.207031 368.894531 56.527344 C 368.828125 55.847656 368.726562 55.175781 368.589844 54.507812 C 368.457031 53.835938 368.289062 53.175781 368.089844 52.523438 C 367.890625 51.871094 367.660156 51.226562 367.398438 50.597656 C 367.136719 49.96875 366.84375 49.351562 366.519531 48.75 C 366.199219 48.148438 365.847656 47.566406 365.464844 46.996094 C 365.085938 46.429688 364.679688 45.882812 364.246094 45.355469 C 363.808594 44.828125 363.351562 44.324219 362.867188 43.84375 C 362.382812 43.363281 361.878906 42.902344 361.351562 42.472656 C 360.820312 42.039062 360.273438 41.632812 359.707031 41.253906 C 359.136719 40.878906 358.550781 40.527344 357.949219 40.207031 C 357.347656 39.886719 356.730469 39.59375 356.097656 39.335938 C 355.46875 39.074219 354.824219 38.84375 354.171875 38.648438 C 353.519531 38.449219 352.855469 38.285156 352.1875 38.152344 C 351.515625 38.019531 350.84375 37.921875 350.164062 37.855469 C 349.484375 37.789062 348.800781 37.753906 348.121094 37.753906 Z M 281.097656 334.289062 C 281.09375 334.855469 281.039062 335.414062 280.925781 335.972656 C 280.8125 336.527344 280.648438 337.066406 280.429688 337.589844 C 280.210938 338.113281 279.945312 338.609375 279.628906 339.082031 C 279.316406 339.554688 278.957031 339.988281 278.554688 340.390625 C 278.15625 340.789062 277.71875 341.148438 277.246094 341.464844 C 276.777344 341.78125 276.277344 342.046875 275.753906 342.265625 C 275.230469 342.480469 274.691406 342.648438 274.136719 342.757812 C 273.582031 342.871094 273.019531 342.929688 272.453125 342.929688 L 24.570312 342.929688 C 24.003906 342.929688 23.441406 342.871094 22.886719 342.757812 C 22.328125 342.648438 21.789062 342.480469 21.265625 342.265625 C 20.742188 342.046875 20.246094 341.78125 19.773438 341.464844 C 19.300781 341.148438 18.867188 340.789062 18.464844 340.390625 C 18.066406 339.988281 17.707031 339.554688 17.390625 339.082031 C 17.074219 338.609375 16.808594 338.113281 16.589844 337.589844 C 16.375 337.066406 16.207031 336.527344 16.097656 335.972656 C 15.984375 335.414062 15.925781 334.855469 15.925781 334.289062 L 15.925781 130.757812 C 15.925781 130.1875 15.980469 129.625 16.089844 129.066406 C 16.199219 128.507812 16.363281 127.964844 16.578125 127.4375 C 16.796875 126.910156 17.0625 126.410156 17.375 125.9375 C 17.691406 125.464844 18.046875 125.023438 18.449219 124.621094 C 18.851562 124.214844 19.289062 123.855469 19.757812 123.535156 C 20.230469 123.21875 20.730469 122.949219 21.253906 122.730469 C 21.78125 122.507812 22.320312 122.34375 22.878906 122.226562 C 23.4375 122.113281 24 122.054688 24.570312 122.054688 L 272.453125 122.054688 C 273.023438 122.054688 273.585938 122.113281 274.144531 122.230469 C 274.699219 122.34375 275.242188 122.507812 275.765625 122.730469 C 276.292969 122.949219 276.789062 123.21875 277.261719 123.535156 C 277.734375 123.855469 278.171875 124.214844 278.570312 124.621094 C 278.972656 125.023438 279.332031 125.464844 279.644531 125.9375 C 279.960938 126.410156 280.226562 126.910156 280.441406 127.4375 C 280.660156 127.964844 280.824219 128.507812 280.933594 129.066406 C 281.042969 129.625 281.097656 130.1875 281.097656 130.757812 Z M 318.960938 298.195312 C 318.957031 298.765625 318.898438 299.328125 318.785156 299.886719 C 318.671875 300.441406 318.503906 300.984375 318.285156 301.507812 C 318.0625 302.035156 317.792969 302.53125 317.476562 303.003906 C 317.160156 303.476562 316.796875 303.914062 316.394531 304.3125 C 315.988281 304.714844 315.550781 305.070312 315.074219 305.386719 C 314.601562 305.703125 314.101562 305.96875 313.574219 306.183594 C 313.046875 306.402344 312.507812 306.5625 311.949219 306.671875 C 311.390625 306.785156 310.824219 306.839844 310.253906 306.835938 L 293.273438 306.835938 L 293.273438 130.757812 C 293.273438 130.074219 293.238281 129.394531 293.171875 128.714844 C 293.105469 128.035156 293.007812 127.359375 292.875 126.691406 C 292.742188 126.019531 292.578125 125.359375 292.378906 124.707031 C 292.183594 124.050781 291.953125 123.410156 291.691406 122.777344 C 291.433594 122.148438 291.140625 121.53125 290.820312 120.929688 C 290.5 120.324219 290.148438 119.742188 289.769531 119.171875 C 289.390625 118.605469 288.988281 118.054688 288.554688 117.527344 C 288.121094 117 287.664062 116.496094 287.183594 116.011719 C 286.699219 115.527344 286.195312 115.070312 285.667969 114.636719 C 285.140625 114.199219 284.59375 113.792969 284.027344 113.414062 C 283.460938 113.035156 282.875 112.683594 282.273438 112.359375 C 281.671875 112.035156 281.058594 111.742188 280.425781 111.480469 C 279.796875 111.21875 279.15625 110.988281 278.5 110.789062 C 277.847656 110.589844 277.1875 110.421875 276.519531 110.289062 C 275.847656 110.152344 275.175781 110.054688 274.496094 109.984375 C 273.816406 109.917969 273.136719 109.882812 272.453125 109.878906 L 53.789062 109.878906 L 53.789062 94.664062 C 53.789062 94.09375 53.84375 93.527344 53.957031 92.964844 C 54.066406 92.40625 54.234375 91.859375 54.453125 91.332031 C 54.671875 90.804688 54.9375 90.304688 55.257812 89.828125 C 55.574219 89.351562 55.933594 88.914062 56.339844 88.507812 C 56.742188 88.105469 57.183594 87.746094 57.65625 87.425781 C 58.132812 87.109375 58.636719 86.839844 59.164062 86.621094 C 59.691406 86.402344 60.234375 86.238281 60.796875 86.128906 C 61.355469 86.015625 61.921875 85.960938 62.496094 85.960938 L 310.253906 85.960938 C 310.828125 85.960938 311.394531 86.015625 311.953125 86.128906 C 312.515625 86.238281 313.058594 86.402344 313.585938 86.621094 C 314.113281 86.839844 314.617188 87.109375 315.09375 87.425781 C 315.566406 87.746094 316.007812 88.105469 316.410156 88.507812 C 316.816406 88.914062 317.175781 89.351562 317.492188 89.828125 C 317.8125 90.304688 318.078125 90.804688 318.296875 91.332031 C 318.515625 91.859375 318.683594 92.40625 318.792969 92.964844 C 318.90625 93.527344 318.960938 94.09375 318.960938 94.664062 Z M 318.960938 298.195312 " fill-opacity="1" fill-rule="nonzero"/></g><path fill="#000000" d="M 122.679688 237.171875 C 122.992188 237.421875 123.328125 237.636719 123.683594 237.820312 C 124.039062 238.003906 124.40625 238.148438 124.792969 238.257812 C 125.175781 238.367188 125.566406 238.441406 125.964844 238.472656 C 126.363281 238.507812 126.761719 238.5 127.15625 238.457031 C 127.554688 238.410156 127.941406 238.328125 128.324219 238.207031 C 128.703125 238.085938 129.070312 237.925781 129.417969 237.734375 C 129.769531 237.539062 130.09375 237.316406 130.398438 237.058594 C 130.707031 236.800781 130.980469 236.515625 131.230469 236.203125 C 131.480469 235.890625 131.695312 235.554688 131.878906 235.203125 C 132.0625 234.847656 132.210938 234.476562 132.320312 234.09375 C 132.429688 233.710938 132.503906 233.320312 132.539062 232.921875 C 132.570312 232.523438 132.566406 232.125 132.519531 231.730469 C 132.476562 231.332031 132.394531 230.945312 132.273438 230.5625 C 132.152344 230.183594 131.996094 229.816406 131.800781 229.46875 C 131.609375 229.117188 131.382812 228.789062 131.125 228.484375 C 130.871094 228.179688 130.585938 227.902344 130.273438 227.652344 L 91.117188 196.429688 L 130.273438 165.207031 C 130.585938 164.957031 130.871094 164.679688 131.128906 164.375 C 131.386719 164.070312 131.609375 163.742188 131.804688 163.390625 C 131.996094 163.042969 132.15625 162.675781 132.277344 162.296875 C 132.398438 161.914062 132.480469 161.527344 132.527344 161.128906 C 132.570312 160.730469 132.574219 160.332031 132.542969 159.9375 C 132.507812 159.539062 132.4375 159.144531 132.324219 158.761719 C 132.214844 158.378906 132.066406 158.007812 131.882812 157.652344 C 131.703125 157.300781 131.484375 156.964844 131.234375 156.652344 C 130.988281 156.339844 130.710938 156.054688 130.402344 155.796875 C 130.097656 155.539062 129.769531 155.3125 129.421875 155.121094 C 129.070312 154.925781 128.707031 154.769531 128.324219 154.648438 C 127.945312 154.527344 127.554688 154.445312 127.160156 154.398438 C 126.761719 154.355469 126.363281 154.347656 125.964844 154.382812 C 125.566406 154.414062 125.175781 154.488281 124.792969 154.597656 C 124.40625 154.707031 124.039062 154.855469 123.683594 155.039062 C 123.328125 155.222656 122.992188 155.4375 122.679688 155.6875 L 77.5625 191.667969 C 77.203125 191.953125 76.882812 192.277344 76.597656 192.632812 C 76.3125 192.992188 76.070312 193.375 75.871094 193.789062 C 75.671875 194.199219 75.523438 194.628906 75.421875 195.074219 C 75.320312 195.519531 75.269531 195.972656 75.269531 196.429688 C 75.269531 196.886719 75.320312 197.339844 75.421875 197.785156 C 75.523438 198.230469 75.671875 198.660156 75.871094 199.070312 C 76.070312 199.484375 76.3125 199.867188 76.597656 200.226562 C 76.882812 200.582031 77.203125 200.902344 77.5625 201.1875 Z M 122.679688 237.171875 " fill-opacity="1" fill-rule="nonzero"/><path fill="#000000" d="M 202.269531 155.6875 C 201.957031 155.4375 201.621094 155.222656 201.269531 155.039062 C 200.914062 154.855469 200.542969 154.710938 200.160156 154.597656 C 199.773438 154.488281 199.382812 154.417969 198.984375 154.382812 C 198.589844 154.351562 198.191406 154.355469 197.792969 154.402344 C 197.398438 154.445312 197.007812 154.53125 196.628906 154.652344 C 196.246094 154.773438 195.882812 154.929688 195.53125 155.125 C 195.183594 155.316406 194.855469 155.542969 194.550781 155.800781 C 194.246094 156.058594 193.96875 156.34375 193.71875 156.65625 C 193.46875 156.96875 193.253906 157.300781 193.070312 157.65625 C 192.886719 158.011719 192.738281 158.378906 192.628906 158.765625 C 192.519531 159.148438 192.445312 159.539062 192.414062 159.9375 C 192.378906 160.335938 192.382812 160.730469 192.429688 161.128906 C 192.472656 161.527344 192.554688 161.914062 192.675781 162.296875 C 192.796875 162.675781 192.957031 163.042969 193.148438 163.390625 C 193.339844 163.742188 193.566406 164.066406 193.824219 164.375 C 194.082031 164.679688 194.367188 164.957031 194.679688 165.207031 L 233.859375 196.429688 L 194.703125 227.652344 C 194.390625 227.902344 194.105469 228.179688 193.847656 228.484375 C 193.589844 228.789062 193.363281 229.117188 193.171875 229.46875 C 192.980469 229.816406 192.820312 230.183594 192.699219 230.5625 C 192.578125 230.945312 192.496094 231.332031 192.453125 231.730469 C 192.40625 232.125 192.402344 232.523438 192.433594 232.921875 C 192.46875 233.320312 192.539062 233.710938 192.652344 234.09375 C 192.761719 234.480469 192.910156 234.847656 193.09375 235.203125 C 193.277344 235.558594 193.492188 235.890625 193.742188 236.203125 C 193.992188 236.515625 194.265625 236.800781 194.574219 237.058594 C 194.878906 237.316406 195.207031 237.542969 195.554688 237.738281 C 195.90625 237.929688 196.269531 238.085938 196.652344 238.207031 C 197.03125 238.332031 197.421875 238.414062 197.816406 238.457031 C 198.214844 238.503906 198.613281 238.507812 199.011719 238.476562 C 199.410156 238.441406 199.800781 238.371094 200.183594 238.261719 C 200.566406 238.148438 200.9375 238.003906 201.292969 237.820312 C 201.648438 237.636719 201.980469 237.421875 202.292969 237.171875 L 247.414062 201.1875 C 247.773438 200.902344 248.09375 200.582031 248.378906 200.226562 C 248.664062 199.867188 248.90625 199.484375 249.105469 199.070312 C 249.304688 198.660156 249.453125 198.230469 249.554688 197.785156 C 249.65625 197.339844 249.707031 196.886719 249.707031 196.429688 C 249.707031 195.972656 249.65625 195.519531 249.554688 195.074219 C 249.453125 194.628906 249.304688 194.199219 249.105469 193.789062 C 248.90625 193.375 248.664062 192.992188 248.378906 192.632812 C 248.09375 192.277344 247.773438 191.953125 247.414062 191.667969 Z M 202.269531 155.6875 " fill-opacity="1" fill-rule="nonzero"/><path fill="#000000" d="M 181.15625 142.089844 C 180.78125 141.960938 180.394531 141.867188 179.996094 141.8125 C 179.601562 141.761719 179.203125 141.746094 178.804688 141.769531 C 178.40625 141.792969 178.011719 141.855469 177.625 141.957031 C 177.238281 142.0625 176.867188 142.199219 176.507812 142.375 C 176.148438 142.550781 175.808594 142.757812 175.492188 143 C 175.171875 143.242188 174.882812 143.511719 174.617188 143.8125 C 174.351562 144.109375 174.121094 144.433594 173.917969 144.777344 C 173.714844 145.125 173.550781 145.484375 173.421875 145.863281 L 140.011719 243.035156 C 139.886719 243.410156 139.796875 243.796875 139.746094 244.191406 C 139.695312 244.582031 139.683594 244.980469 139.710938 245.375 C 139.738281 245.773438 139.804688 246.164062 139.90625 246.546875 C 140.011719 246.929688 140.152344 247.300781 140.328125 247.65625 C 140.503906 248.011719 140.710938 248.347656 140.953125 248.664062 C 141.195312 248.980469 141.464844 249.269531 141.761719 249.53125 C 142.0625 249.792969 142.382812 250.023438 142.726562 250.226562 C 143.070312 250.425781 143.429688 250.589844 143.804688 250.71875 C 144.179688 250.847656 144.566406 250.9375 144.957031 250.992188 C 145.351562 251.046875 145.746094 251.0625 146.144531 251.039062 C 146.542969 251.015625 146.933594 250.953125 147.316406 250.855469 C 147.703125 250.753906 148.074219 250.617188 148.429688 250.445312 C 148.789062 250.273438 149.125 250.066406 149.445312 249.828125 C 149.761719 249.589844 150.054688 249.320312 150.320312 249.027344 C 150.582031 248.730469 150.816406 248.410156 151.019531 248.070312 C 151.222656 247.726562 151.390625 247.371094 151.523438 246.996094 L 184.9375 149.824219 C 185.070312 149.449219 185.160156 149.058594 185.214844 148.664062 C 185.269531 148.269531 185.28125 147.871094 185.257812 147.472656 C 185.234375 147.074219 185.167969 146.679688 185.066406 146.292969 C 184.964844 145.90625 184.828125 145.535156 184.652344 145.175781 C 184.476562 144.816406 184.265625 144.476562 184.023438 144.160156 C 183.78125 143.839844 183.511719 143.550781 183.210938 143.285156 C 182.910156 143.019531 182.589844 142.785156 182.242188 142.585938 C 181.898438 142.382812 181.535156 142.21875 181.15625 142.089844 Z M 181.15625 142.089844 " fill-opacity="1" fill-rule="nonzero"/><path fill="#000000" d="M 134.265625 273.789062 L 53.425781 273.789062 C 53.023438 273.789062 52.628906 273.828125 52.238281 273.90625 C 51.84375 273.984375 51.464844 274.097656 51.09375 274.25 C 50.726562 274.402344 50.375 274.589844 50.042969 274.8125 C 49.710938 275.035156 49.402344 275.289062 49.121094 275.570312 C 48.835938 275.851562 48.585938 276.160156 48.363281 276.492188 C 48.140625 276.824219 47.953125 277.175781 47.800781 277.546875 C 47.648438 277.914062 47.53125 278.296875 47.453125 278.6875 C 47.375 279.078125 47.335938 279.476562 47.335938 279.875 L 47.335938 317.183594 C 47.335938 317.585938 47.375 317.980469 47.453125 318.371094 C 47.53125 318.765625 47.648438 319.144531 47.800781 319.511719 C 47.953125 319.882812 48.140625 320.234375 48.363281 320.566406 C 48.585938 320.898438 48.835938 321.207031 49.121094 321.488281 C 49.402344 321.769531 49.710938 322.023438 50.042969 322.246094 C 50.375 322.46875 50.726562 322.65625 51.09375 322.808594 C 51.464844 322.960938 51.84375 323.074219 52.238281 323.152344 C 52.628906 323.230469 53.023438 323.269531 53.425781 323.269531 L 134.265625 323.269531 C 134.664062 323.269531 135.0625 323.230469 135.453125 323.152344 C 135.84375 323.074219 136.226562 322.960938 136.59375 322.808594 C 136.964844 322.65625 137.316406 322.46875 137.648438 322.246094 C 137.980469 322.023438 138.289062 321.769531 138.570312 321.488281 C 138.851562 321.207031 139.105469 320.898438 139.328125 320.566406 C 139.550781 320.234375 139.738281 319.882812 139.890625 319.511719 C 140.042969 319.144531 140.160156 318.765625 140.238281 318.371094 C 140.316406 317.980469 140.355469 317.585938 140.355469 317.183594 L 140.355469 279.875 C 140.355469 279.476562 140.316406 279.078125 140.238281 278.6875 C 140.160156 278.296875 140.042969 277.914062 139.890625 277.546875 C 139.738281 277.175781 139.550781 276.824219 139.328125 276.492188 C 139.105469 276.160156 138.851562 275.851562 138.570312 275.570312 C 138.289062 275.289062 137.980469 275.035156 137.648438 274.8125 C 137.316406 274.589844 136.964844 274.402344 136.59375 274.25 C 136.226562 274.097656 135.84375 273.984375 135.453125 273.90625 C 135.0625 273.828125 134.664062 273.789062 134.265625 273.789062 Z M 128.179688 311.097656 L 59.511719 311.097656 L 59.511719 285.960938 L 128.179688 285.960938 Z M 128.179688 311.097656 " fill-opacity="1" fill-rule="nonzero"/></svg>