<svg xmlns="http://www.w3.org/2000/svg" xmlns:xlink="http://www.w3.org/1999/xlink" width="500" zoomAndPan="magnify" viewBox="0 0 375 374.999991" height="500" preserveAspectRatio="xMidYMid meet" version="1.0"><defs><clipPath id="e70c814312"><path d="M 4.933594 29 L 370.183594 29 L 370.183594 346.144531 L 4.933594 346.144531 Z M 4.933594 29 " clip-rule="nonzero"/></clipPath></defs><g clip-path="url(#e70c814312)"><path fill="#ffffff" d="M 349.191406 29.152344 L 101.390625 29.152344 C 100.707031 29.152344 100.03125 29.1875 99.351562 29.253906 C 98.675781 29.324219 98.003906 29.421875 97.335938 29.558594 C 96.667969 29.691406 96.007812 29.859375 95.359375 30.054688 C 94.707031 30.253906 94.066406 30.484375 93.441406 30.746094 C 92.8125 31.007812 92.199219 31.300781 91.597656 31.621094 C 90.996094 31.941406 90.414062 32.292969 89.851562 32.671875 C 89.285156 33.050781 88.738281 33.457031 88.214844 33.890625 C 87.6875 34.320312 87.183594 34.78125 86.703125 35.261719 C 86.222656 35.742188 85.769531 36.246094 85.335938 36.773438 C 84.90625 37.300781 84.503906 37.847656 84.125 38.414062 C 83.746094 38.980469 83.398438 39.5625 83.078125 40.164062 C 82.757812 40.765625 82.46875 41.378906 82.210938 42.007812 C 81.949219 42.636719 81.722656 43.277344 81.523438 43.929688 C 81.328125 44.582031 81.164062 45.242188 81.03125 45.910156 C 80.898438 46.578125 80.800781 47.25 80.734375 47.925781 C 80.667969 48.605469 80.636719 49.28125 80.636719 49.964844 L 80.636719 65.175781 L 63.660156 65.175781 C 62.976562 65.179688 62.292969 65.214844 61.613281 65.28125 C 60.933594 65.347656 60.257812 65.449219 59.589844 65.585938 C 58.917969 65.71875 58.257812 65.886719 57.605469 66.085938 C 56.949219 66.285156 56.308594 66.515625 55.675781 66.777344 C 55.046875 67.039062 54.429688 67.332031 53.828125 67.652344 C 53.222656 67.976562 52.640625 68.328125 52.070312 68.707031 C 51.503906 69.085938 50.953125 69.492188 50.425781 69.925781 C 49.898438 70.359375 49.394531 70.820312 48.910156 71.300781 C 48.425781 71.785156 47.96875 72.289062 47.535156 72.820312 C 47.101562 73.347656 46.695312 73.894531 46.316406 74.460938 C 45.933594 75.03125 45.582031 75.617188 45.261719 76.21875 C 44.9375 76.820312 44.644531 77.4375 44.382812 78.070312 C 44.121094 78.699219 43.890625 79.34375 43.691406 79.996094 C 43.492188 80.648438 43.328125 81.3125 43.191406 81.980469 C 43.058594 82.652344 42.957031 83.328125 42.890625 84.007812 C 42.820312 84.6875 42.785156 85.367188 42.785156 86.050781 L 42.785156 101.265625 L 25.746094 101.265625 C 25.0625 101.265625 24.382812 101.304688 23.703125 101.371094 C 23.027344 101.441406 22.351562 101.542969 21.683594 101.679688 C 21.015625 101.816406 20.355469 101.980469 19.703125 102.183594 C 19.050781 102.382812 18.410156 102.613281 17.78125 102.875 C 17.148438 103.136719 16.535156 103.429688 15.933594 103.753906 C 15.332031 104.078125 14.75 104.429688 14.183594 104.808594 C 13.617188 105.1875 13.070312 105.597656 12.542969 106.03125 C 12.015625 106.464844 11.511719 106.921875 11.03125 107.40625 C 10.550781 107.886719 10.09375 108.394531 9.660156 108.921875 C 9.226562 109.449219 8.824219 109.996094 8.445312 110.566406 C 8.066406 111.132812 7.714844 111.71875 7.394531 112.320312 C 7.074219 112.921875 6.78125 113.535156 6.519531 114.167969 C 6.261719 114.796875 6.03125 115.4375 5.832031 116.09375 C 5.636719 116.746094 5.46875 117.40625 5.335938 118.074219 C 5.203125 118.742188 5.101562 119.417969 5.035156 120.097656 C 4.96875 120.777344 4.933594 121.457031 4.933594 122.136719 L 4.933594 325.640625 C 4.933594 326.320312 4.96875 327 5.035156 327.679688 C 5.105469 328.355469 5.203125 329.027344 5.339844 329.695312 C 5.472656 330.367188 5.636719 331.023438 5.835938 331.675781 C 6.035156 332.328125 6.265625 332.96875 6.527344 333.597656 C 6.789062 334.226562 7.078125 334.84375 7.398438 335.445312 C 7.722656 336.042969 8.070312 336.628906 8.449219 337.195312 C 8.828125 337.761719 9.234375 338.308594 9.667969 338.835938 C 10.097656 339.359375 10.554688 339.863281 11.039062 340.347656 C 11.519531 340.828125 12.023438 341.285156 12.550781 341.71875 C 13.078125 342.148438 13.625 342.554688 14.191406 342.933594 C 14.757812 343.3125 15.339844 343.664062 15.941406 343.984375 C 16.542969 344.304688 17.15625 344.597656 17.785156 344.859375 C 18.414062 345.121094 19.054688 345.351562 19.707031 345.546875 C 20.359375 345.746094 21.019531 345.914062 21.6875 346.046875 C 22.355469 346.179688 23.027344 346.28125 23.707031 346.347656 C 24.386719 346.417969 25.066406 346.449219 25.746094 346.453125 L 273.550781 346.453125 C 274.230469 346.453125 274.910156 346.417969 275.589844 346.351562 C 276.269531 346.285156 276.941406 346.1875 277.609375 346.054688 C 278.28125 345.921875 278.941406 345.753906 279.59375 345.558594 C 280.246094 345.359375 280.886719 345.132812 281.515625 344.871094 C 282.144531 344.609375 282.761719 344.320312 283.363281 343.996094 C 283.964844 343.675781 284.546875 343.328125 285.117188 342.949219 C 285.683594 342.570312 286.230469 342.164062 286.757812 341.730469 C 287.285156 341.296875 287.789062 340.839844 288.269531 340.359375 C 288.75 339.878906 289.210938 339.371094 289.640625 338.84375 C 290.074219 338.320312 290.480469 337.773438 290.859375 337.203125 C 291.238281 336.636719 291.585938 336.054688 291.910156 335.453125 C 292.230469 334.851562 292.519531 334.234375 292.78125 333.605469 C 293.042969 332.976562 293.269531 332.335938 293.46875 331.683594 C 293.667969 331.03125 293.832031 330.367188 293.964844 329.699219 C 294.097656 329.03125 294.195312 328.359375 294.261719 327.679688 C 294.328125 327 294.363281 326.320312 294.363281 325.640625 L 294.363281 310.363281 L 311.339844 310.363281 C 312.023438 310.363281 312.703125 310.332031 313.382812 310.265625 C 314.0625 310.199219 314.738281 310.101562 315.40625 309.96875 C 316.078125 309.835938 316.738281 309.671875 317.390625 309.472656 C 318.042969 309.273438 318.6875 309.046875 319.316406 308.785156 C 319.949219 308.527344 320.566406 308.234375 321.167969 307.914062 C 321.769531 307.59375 322.355469 307.242188 322.921875 306.863281 C 323.492188 306.484375 324.039062 306.082031 324.566406 305.648438 C 325.09375 305.214844 325.601562 304.757812 326.085938 304.277344 C 326.566406 303.796875 327.027344 303.292969 327.460938 302.765625 C 327.894531 302.238281 328.300781 301.691406 328.679688 301.125 C 329.0625 300.554688 329.414062 299.972656 329.734375 299.371094 C 330.058594 298.769531 330.351562 298.152344 330.613281 297.523438 C 330.875 296.894531 331.105469 296.253906 331.304688 295.597656 C 331.503906 294.945312 331.671875 294.285156 331.804688 293.617188 C 331.941406 292.949219 332.042969 292.273438 332.109375 291.59375 C 332.179688 290.914062 332.210938 290.234375 332.214844 289.550781 L 332.214844 274.335938 L 349.191406 274.335938 C 349.875 274.335938 350.558594 274.300781 351.238281 274.234375 C 351.917969 274.164062 352.59375 274.066406 353.261719 273.929688 C 353.933594 273.796875 354.59375 273.628906 355.25 273.429688 C 355.902344 273.230469 356.542969 273 357.175781 272.738281 C 357.804688 272.476562 358.421875 272.183594 359.027344 271.863281 C 359.628906 271.539062 360.214844 271.1875 360.78125 270.808594 C 361.347656 270.429688 361.898438 270.023438 362.425781 269.589844 C 362.953125 269.15625 363.457031 268.695312 363.941406 268.214844 C 364.425781 267.730469 364.882812 267.222656 365.316406 266.695312 C 365.75 266.167969 366.15625 265.621094 366.539062 265.050781 C 366.917969 264.484375 367.269531 263.898438 367.589844 263.296875 C 367.914062 262.695312 368.207031 262.078125 368.46875 261.445312 C 368.730469 260.816406 368.960938 260.171875 369.160156 259.519531 C 369.359375 258.867188 369.523438 258.203125 369.660156 257.535156 C 369.792969 256.863281 369.894531 256.1875 369.960938 255.507812 C 370.03125 254.828125 370.066406 254.148438 370.066406 253.464844 L 370.066406 49.964844 C 370.066406 49.28125 370.03125 48.601562 369.960938 47.921875 C 369.894531 47.242188 369.792969 46.566406 369.65625 45.898438 C 369.523438 45.230469 369.355469 44.570312 369.15625 43.914062 C 368.957031 43.261719 368.726562 42.621094 368.464844 41.992188 C 368.203125 41.363281 367.910156 40.746094 367.585938 40.144531 C 367.265625 39.542969 366.914062 38.957031 366.53125 38.390625 C 366.152344 37.824219 365.746094 37.277344 365.3125 36.75 C 364.878906 36.222656 364.417969 35.71875 363.9375 35.238281 C 363.453125 34.757812 362.949219 34.300781 362.417969 33.867188 C 361.890625 33.433594 361.34375 33.027344 360.773438 32.652344 C 360.207031 32.273438 359.621094 31.921875 359.019531 31.601562 C 358.417969 31.28125 357.800781 30.988281 357.167969 30.730469 C 356.539062 30.46875 355.898438 30.238281 355.242188 30.042969 C 354.589844 29.84375 353.929688 29.679688 353.257812 29.546875 C 352.589844 29.414062 351.914062 29.316406 351.234375 29.25 C 350.554688 29.183594 349.875 29.152344 349.191406 29.152344 Z M 282.191406 325.640625 C 282.1875 326.207031 282.132812 326.765625 282.019531 327.324219 C 281.90625 327.878906 281.742188 328.417969 281.523438 328.941406 C 281.308594 329.464844 281.039062 329.960938 280.726562 330.433594 C 280.410156 330.902344 280.050781 331.339844 279.652344 331.742188 C 279.25 332.140625 278.816406 332.5 278.34375 332.816406 C 277.871094 333.128906 277.375 333.398438 276.851562 333.613281 C 276.328125 333.832031 275.789062 333.996094 275.234375 334.109375 C 274.675781 334.222656 274.117188 334.277344 273.550781 334.28125 L 25.746094 334.28125 C 25.179688 334.277344 24.617188 334.222656 24.0625 334.109375 C 23.507812 333.996094 22.96875 333.832031 22.445312 333.613281 C 21.921875 333.398438 21.421875 333.128906 20.953125 332.816406 C 20.480469 332.5 20.046875 332.140625 19.644531 331.742188 C 19.242188 331.339844 18.886719 330.902344 18.570312 330.433594 C 18.253906 329.960938 17.988281 329.464844 17.769531 328.941406 C 17.550781 328.417969 17.386719 327.878906 17.277344 327.324219 C 17.164062 326.765625 17.105469 326.207031 17.105469 325.640625 L 17.105469 122.136719 C 17.105469 121.570312 17.160156 121.003906 17.269531 120.445312 C 17.378906 119.890625 17.542969 119.347656 17.757812 118.820312 C 17.972656 118.292969 18.238281 117.792969 18.554688 117.320312 C 18.871094 116.84375 19.226562 116.40625 19.628906 116.003906 C 20.03125 115.597656 20.464844 115.238281 20.9375 114.917969 C 21.410156 114.601562 21.90625 114.332031 22.433594 114.113281 C 22.957031 113.890625 23.5 113.726562 24.054688 113.613281 C 24.613281 113.496094 25.175781 113.4375 25.746094 113.4375 L 273.550781 113.4375 C 274.117188 113.4375 274.683594 113.496094 275.238281 113.613281 C 275.796875 113.726562 276.339844 113.890625 276.863281 114.113281 C 277.386719 114.332031 277.886719 114.601562 278.359375 114.917969 C 278.828125 115.238281 279.265625 115.597656 279.667969 116.003906 C 280.066406 116.40625 280.425781 116.84375 280.742188 117.320312 C 281.054688 117.792969 281.320312 118.292969 281.539062 118.820312 C 281.753906 119.347656 281.917969 119.890625 282.027344 120.445312 C 282.136719 121.003906 282.191406 121.570312 282.191406 122.136719 Z M 320.042969 289.550781 C 320.039062 290.121094 319.980469 290.683594 319.867188 291.242188 C 319.753906 291.800781 319.585938 292.339844 319.367188 292.863281 C 319.144531 293.390625 318.878906 293.886719 318.558594 294.359375 C 318.242188 294.832031 317.878906 295.269531 317.476562 295.667969 C 317.074219 296.070312 316.632812 296.429688 316.160156 296.742188 C 315.683594 297.058594 315.183594 297.324219 314.660156 297.539062 C 314.132812 297.757812 313.589844 297.917969 313.03125 298.03125 C 312.472656 298.140625 311.910156 298.195312 311.339844 298.191406 L 294.363281 298.191406 L 294.363281 122.136719 C 294.363281 121.457031 294.328125 120.773438 294.265625 120.09375 C 294.199219 119.417969 294.097656 118.742188 293.964844 118.070312 C 293.832031 117.402344 293.667969 116.742188 293.472656 116.085938 C 293.273438 115.433594 293.042969 114.792969 292.785156 114.160156 C 292.523438 113.53125 292.234375 112.914062 291.910156 112.3125 C 291.589844 111.710938 291.242188 111.125 290.863281 110.554688 C 290.484375 109.988281 290.078125 109.441406 289.648438 108.910156 C 289.214844 108.382812 288.757812 107.878906 288.273438 107.394531 C 287.792969 106.910156 287.289062 106.453125 286.761719 106.019531 C 286.234375 105.585938 285.6875 105.179688 285.121094 104.796875 C 284.554688 104.417969 283.96875 104.066406 283.367188 103.742188 C 282.765625 103.421875 282.152344 103.128906 281.523438 102.867188 C 280.890625 102.605469 280.25 102.375 279.597656 102.171875 C 278.945312 101.972656 278.285156 101.808594 277.613281 101.671875 C 276.945312 101.539062 276.269531 101.4375 275.59375 101.371094 C 274.914062 101.300781 274.230469 101.265625 273.550781 101.265625 L 54.957031 101.265625 L 54.957031 86.050781 C 54.957031 85.480469 55.011719 84.914062 55.125 84.351562 C 55.234375 83.792969 55.402344 83.25 55.621094 82.71875 C 55.835938 82.191406 56.105469 81.691406 56.421875 81.214844 C 56.742188 80.742188 57.101562 80.300781 57.503906 79.898438 C 57.910156 79.492188 58.347656 79.132812 58.824219 78.816406 C 59.300781 78.496094 59.800781 78.230469 60.328125 78.011719 C 60.855469 77.792969 61.402344 77.628906 61.960938 77.515625 C 62.523438 77.40625 63.085938 77.347656 63.660156 77.347656 L 311.339844 77.347656 C 311.914062 77.347656 312.476562 77.40625 313.039062 77.515625 C 313.597656 77.628906 314.144531 77.792969 314.671875 78.011719 C 315.199219 78.230469 315.699219 78.496094 316.175781 78.816406 C 316.652344 79.132812 317.089844 79.492188 317.496094 79.898438 C 317.898438 80.300781 318.257812 80.742188 318.578125 81.214844 C 318.894531 81.691406 319.160156 82.191406 319.378906 82.71875 C 319.597656 83.25 319.765625 83.792969 319.875 84.351562 C 319.988281 84.914062 320.042969 85.480469 320.042969 86.050781 Z M 320.042969 289.550781 " fill-opacity="1" fill-rule="nonzero"/></g><path fill="#ffffff" d="M 123.828125 228.539062 C 124.140625 228.785156 124.472656 229.003906 124.828125 229.183594 C 125.183594 229.367188 125.550781 229.515625 125.9375 229.625 C 126.320312 229.734375 126.710938 229.804688 127.109375 229.839844 C 127.507812 229.871094 127.902344 229.867188 128.300781 229.820312 C 128.699219 229.777344 129.085938 229.695312 129.464844 229.570312 C 129.847656 229.449219 130.210938 229.292969 130.5625 229.101562 C 130.910156 228.90625 131.238281 228.679688 131.542969 228.421875 C 131.847656 228.164062 132.125 227.878906 132.375 227.570312 C 132.621094 227.257812 132.839844 226.921875 133.023438 226.566406 C 133.207031 226.214844 133.351562 225.84375 133.464844 225.460938 C 133.574219 225.078125 133.644531 224.6875 133.679688 224.289062 C 133.714844 223.890625 133.707031 223.492188 133.664062 223.097656 C 133.617188 222.699219 133.535156 222.308594 133.414062 221.929688 C 133.292969 221.550781 133.136719 221.183594 132.945312 220.835938 C 132.75 220.484375 132.527344 220.15625 132.269531 219.851562 C 132.011719 219.546875 131.726562 219.269531 131.414062 219.019531 L 92.273438 187.800781 L 131.414062 156.582031 C 131.726562 156.332031 132.011719 156.054688 132.269531 155.75 C 132.527344 155.445312 132.753906 155.117188 132.945312 154.769531 C 133.140625 154.417969 133.296875 154.054688 133.417969 153.671875 C 133.539062 153.292969 133.621094 152.902344 133.667969 152.503906 C 133.710938 152.109375 133.71875 151.710938 133.683594 151.3125 C 133.652344 150.914062 133.578125 150.523438 133.46875 150.140625 C 133.359375 149.757812 133.210938 149.386719 133.027344 149.03125 C 132.84375 148.675781 132.628906 148.34375 132.378906 148.03125 C 132.128906 147.71875 131.851562 147.433594 131.546875 147.175781 C 131.242188 146.917969 130.914062 146.691406 130.566406 146.5 C 130.214844 146.304688 129.851562 146.148438 129.46875 146.027344 C 129.089844 145.90625 128.699219 145.820312 128.300781 145.777344 C 127.90625 145.730469 127.507812 145.726562 127.109375 145.761719 C 126.710938 145.792969 126.320312 145.863281 125.9375 145.976562 C 125.554688 146.085938 125.183594 146.234375 124.828125 146.417969 C 124.472656 146.597656 124.140625 146.816406 123.828125 147.066406 L 78.722656 183.042969 C 78.363281 183.328125 78.042969 183.648438 77.757812 184.007812 C 77.472656 184.363281 77.230469 184.75 77.03125 185.160156 C 76.832031 185.570312 76.683594 186 76.582031 186.445312 C 76.480469 186.890625 76.429688 187.34375 76.429688 187.800781 C 76.429688 188.257812 76.480469 188.710938 76.582031 189.15625 C 76.683594 189.601562 76.832031 190.03125 77.03125 190.441406 C 77.230469 190.855469 77.472656 191.238281 77.757812 191.597656 C 78.042969 191.953125 78.363281 192.273438 78.722656 192.558594 Z M 123.828125 228.539062 " fill-opacity="1" fill-rule="nonzero"/><path fill="#ffffff" d="M 203.390625 147.066406 C 203.078125 146.816406 202.742188 146.601562 202.386719 146.417969 C 202.03125 146.234375 201.664062 146.089844 201.28125 145.976562 C 200.894531 145.867188 200.503906 145.796875 200.105469 145.761719 C 199.710938 145.730469 199.3125 145.734375 198.914062 145.78125 C 198.519531 145.824219 198.128906 145.910156 197.75 146.03125 C 197.367188 146.152344 197.003906 146.308594 196.65625 146.503906 C 196.304688 146.695312 195.976562 146.921875 195.671875 147.179688 C 195.367188 147.4375 195.089844 147.722656 194.839844 148.035156 C 194.59375 148.347656 194.375 148.679688 194.191406 149.035156 C 194.011719 149.390625 193.863281 149.757812 193.753906 150.140625 C 193.640625 150.527344 193.570312 150.917969 193.535156 151.3125 C 193.503906 151.710938 193.507812 152.109375 193.550781 152.507812 C 193.597656 152.902344 193.679688 153.292969 193.800781 153.671875 C 193.921875 154.054688 194.078125 154.417969 194.269531 154.769531 C 194.464844 155.117188 194.6875 155.445312 194.945312 155.75 C 195.203125 156.054688 195.488281 156.332031 195.800781 156.582031 L 234.96875 187.800781 L 195.824219 219.019531 C 195.511719 219.269531 195.226562 219.546875 194.96875 219.851562 C 194.710938 220.15625 194.488281 220.484375 194.292969 220.835938 C 194.101562 221.183594 193.945312 221.550781 193.824219 221.929688 C 193.703125 222.3125 193.617188 222.699219 193.574219 223.097656 C 193.53125 223.492188 193.523438 223.890625 193.558594 224.289062 C 193.589844 224.6875 193.664062 225.078125 193.773438 225.460938 C 193.886719 225.84375 194.03125 226.214844 194.214844 226.570312 C 194.398438 226.925781 194.613281 227.257812 194.863281 227.570312 C 195.113281 227.882812 195.390625 228.167969 195.695312 228.425781 C 196 228.683594 196.328125 228.910156 196.675781 229.101562 C 197.027344 229.296875 197.390625 229.453125 197.773438 229.574219 C 198.152344 229.695312 198.542969 229.777344 198.9375 229.824219 C 199.335938 229.867188 199.734375 229.875 200.132812 229.839844 C 200.527344 229.808594 200.921875 229.734375 201.304688 229.625 C 201.6875 229.515625 202.058594 229.367188 202.414062 229.1875 C 202.765625 229.003906 203.101562 228.785156 203.414062 228.539062 L 248.519531 192.558594 C 248.878906 192.273438 249.199219 191.953125 249.484375 191.597656 C 249.769531 191.238281 250.011719 190.855469 250.210938 190.441406 C 250.40625 190.03125 250.558594 189.601562 250.660156 189.15625 C 250.761719 188.710938 250.8125 188.257812 250.8125 187.800781 C 250.8125 187.34375 250.761719 186.890625 250.660156 186.445312 C 250.558594 186 250.40625 185.570312 250.210938 185.160156 C 250.011719 184.75 249.769531 184.363281 249.484375 184.007812 C 249.199219 183.648438 248.878906 183.328125 248.519531 183.042969 Z M 203.390625 147.066406 " fill-opacity="1" fill-rule="nonzero"/><path fill="#ffffff" d="M 182.285156 133.46875 C 181.90625 133.339844 181.519531 133.246094 181.125 133.195312 C 180.726562 133.140625 180.332031 133.125 179.933594 133.148438 C 179.53125 133.175781 179.140625 133.238281 178.753906 133.339844 C 178.367188 133.441406 177.996094 133.578125 177.636719 133.753906 C 177.277344 133.929688 176.9375 134.136719 176.621094 134.378906 C 176.300781 134.621094 176.011719 134.890625 175.746094 135.191406 C 175.480469 135.492188 175.25 135.8125 175.046875 136.15625 C 174.84375 136.503906 174.679688 136.863281 174.550781 137.242188 L 141.152344 234.398438 C 141.027344 234.773438 140.9375 235.160156 140.886719 235.554688 C 140.835938 235.949219 140.824219 236.34375 140.851562 236.742188 C 140.878906 237.136719 140.945312 237.527344 141.046875 237.910156 C 141.152344 238.292969 141.289062 238.664062 141.464844 239.019531 C 141.640625 239.375 141.851562 239.710938 142.09375 240.027344 C 142.332031 240.34375 142.605469 240.632812 142.902344 240.894531 C 143.199219 241.15625 143.519531 241.390625 143.863281 241.589844 C 144.207031 241.789062 144.566406 241.953125 144.941406 242.082031 C 145.320312 242.210938 145.703125 242.304688 146.097656 242.355469 C 146.492188 242.410156 146.886719 242.425781 147.28125 242.402344 C 147.679688 242.378906 148.070312 242.316406 148.453125 242.21875 C 148.839844 242.117188 149.210938 241.980469 149.566406 241.808594 C 149.925781 241.636719 150.261719 241.429688 150.582031 241.191406 C 150.898438 240.953125 151.191406 240.6875 151.453125 240.390625 C 151.71875 240.09375 151.953125 239.777344 152.15625 239.433594 C 152.359375 239.09375 152.527344 238.734375 152.660156 238.359375 L 186.0625 141.203125 C 186.195312 140.828125 186.285156 140.4375 186.339844 140.042969 C 186.394531 139.648438 186.40625 139.25 186.382812 138.851562 C 186.359375 138.453125 186.296875 138.058594 186.191406 137.671875 C 186.089844 137.285156 185.953125 136.914062 185.777344 136.554688 C 185.601562 136.195312 185.390625 135.855469 185.148438 135.539062 C 184.90625 135.21875 184.636719 134.929688 184.335938 134.664062 C 184.039062 134.398438 183.714844 134.167969 183.371094 133.964844 C 183.023438 133.765625 182.664062 133.597656 182.285156 133.46875 Z M 182.285156 133.46875 " fill-opacity="1" fill-rule="nonzero"/><path fill="#ffffff" d="M 135.40625 265.148438 L 54.589844 265.148438 C 54.191406 265.148438 53.796875 265.1875 53.40625 265.265625 C 53.011719 265.34375 52.632812 265.457031 52.261719 265.613281 C 51.894531 265.765625 51.542969 265.953125 51.210938 266.175781 C 50.878906 266.394531 50.570312 266.648438 50.289062 266.929688 C 50.007812 267.214844 49.753906 267.519531 49.53125 267.851562 C 49.308594 268.183594 49.121094 268.535156 48.96875 268.90625 C 48.816406 269.273438 48.699219 269.65625 48.621094 270.046875 C 48.546875 270.4375 48.507812 270.835938 48.507812 271.234375 L 48.507812 308.539062 C 48.507812 308.9375 48.546875 309.332031 48.621094 309.726562 C 48.699219 310.117188 48.816406 310.5 48.96875 310.867188 C 49.121094 311.238281 49.308594 311.585938 49.53125 311.917969 C 49.753906 312.25 50.007812 312.558594 50.289062 312.839844 C 50.570312 313.125 50.878906 313.375 51.210938 313.597656 C 51.542969 313.820312 51.894531 314.007812 52.261719 314.160156 C 52.632812 314.3125 53.011719 314.429688 53.40625 314.507812 C 53.796875 314.585938 54.191406 314.625 54.589844 314.625 L 135.40625 314.625 C 135.808594 314.625 136.203125 314.585938 136.59375 314.507812 C 136.988281 314.429688 137.367188 314.3125 137.738281 314.160156 C 138.105469 314.007812 138.457031 313.820312 138.789062 313.597656 C 139.121094 313.375 139.429688 313.125 139.710938 312.839844 C 139.992188 312.558594 140.246094 312.25 140.46875 311.917969 C 140.691406 311.585938 140.878906 311.238281 141.03125 310.867188 C 141.183594 310.5 141.296875 310.117188 141.375 309.726562 C 141.453125 309.332031 141.492188 308.9375 141.492188 308.539062 L 141.492188 271.234375 C 141.492188 270.835938 141.453125 270.4375 141.375 270.046875 C 141.296875 269.65625 141.183594 269.273438 141.03125 268.90625 C 140.878906 268.535156 140.691406 268.183594 140.46875 267.851562 C 140.246094 267.519531 139.992188 267.214844 139.710938 266.929688 C 139.429688 266.648438 139.121094 266.394531 138.789062 266.175781 C 138.457031 265.953125 138.105469 265.765625 137.738281 265.613281 C 137.367188 265.457031 136.988281 265.34375 136.59375 265.265625 C 136.203125 265.1875 135.808594 265.148438 135.40625 265.148438 Z M 129.320312 302.453125 L 60.675781 302.453125 L 60.675781 277.320312 L 129.320312 277.320312 Z M 129.320312 302.453125 " fill-opacity="1" fill-rule="nonzero"/></svg>