<svg xmlns="http://www.w3.org/2000/svg" xmlns:xlink="http://www.w3.org/1999/xlink" width="500" zoomAndPan="magnify" viewBox="0 0 375 374.999991" height="500" preserveAspectRatio="xMidYMid meet" version="1.0"><defs><clipPath id="91d0d22bf3"><path d="M 3.75 37.5 L 369 37.5 L 369 354.75 L 3.75 354.75 Z M 3.75 37.5 " clip-rule="nonzero"/></clipPath></defs><g clip-path="url(#91d0d22bf3)"><path fill="#29a385" d="M 348.007812 37.753906 L 100.207031 37.753906 C 99.523438 37.757812 98.847656 37.792969 98.167969 37.859375 C 97.492188 37.925781 96.820312 38.027344 96.152344 38.160156 C 95.484375 38.296875 94.824219 38.460938 94.175781 38.660156 C 93.523438 38.859375 92.882812 39.089844 92.257812 39.351562 C 91.628906 39.613281 91.015625 39.902344 90.414062 40.226562 C 89.8125 40.546875 89.230469 40.898438 88.667969 41.277344 C 88.101562 41.65625 87.554688 42.0625 87.03125 42.492188 C 86.503906 42.925781 86.003906 43.382812 85.519531 43.867188 C 85.039062 44.347656 84.585938 44.851562 84.152344 45.378906 C 83.722656 45.90625 83.320312 46.453125 82.941406 47.019531 C 82.5625 47.585938 82.214844 48.167969 81.894531 48.769531 C 81.574219 49.371094 81.285156 49.984375 81.027344 50.613281 C 80.765625 51.242188 80.539062 51.882812 80.339844 52.535156 C 80.144531 53.1875 79.980469 53.847656 79.847656 54.511719 C 79.714844 55.179688 79.617188 55.855469 79.550781 56.53125 C 79.484375 57.207031 79.453125 57.886719 79.453125 58.566406 L 79.453125 73.78125 L 62.476562 73.78125 C 61.792969 73.785156 61.109375 73.816406 60.429688 73.886719 C 59.75 73.953125 59.074219 74.054688 58.40625 74.1875 C 57.734375 74.324219 57.074219 74.488281 56.421875 74.6875 C 55.765625 74.886719 55.125 75.117188 54.492188 75.378906 C 53.863281 75.644531 53.246094 75.933594 52.644531 76.257812 C 52.039062 76.578125 51.457031 76.929688 50.886719 77.3125 C 50.320312 77.691406 49.769531 78.097656 49.242188 78.53125 C 48.714844 78.964844 48.210938 79.421875 47.726562 79.90625 C 47.242188 80.390625 46.785156 80.894531 46.351562 81.421875 C 45.917969 81.953125 45.511719 82.5 45.132812 83.066406 C 44.75 83.636719 44.398438 84.21875 44.078125 84.824219 C 43.753906 85.425781 43.460938 86.042969 43.199219 86.671875 C 42.9375 87.304688 42.707031 87.945312 42.507812 88.601562 C 42.308594 89.253906 42.144531 89.914062 42.007812 90.585938 C 41.875 91.253906 41.773438 91.929688 41.707031 92.609375 C 41.636719 93.289062 41.601562 93.972656 41.601562 94.65625 L 41.601562 109.871094 L 24.5625 109.871094 C 23.878906 109.871094 23.199219 109.90625 22.519531 109.976562 C 21.84375 110.046875 21.167969 110.148438 20.5 110.285156 C 19.832031 110.417969 19.171875 110.585938 18.519531 110.785156 C 17.867188 110.988281 17.226562 111.21875 16.597656 111.480469 C 15.964844 111.742188 15.351562 112.035156 14.75 112.359375 C 14.148438 112.683594 13.566406 113.035156 13 113.414062 C 12.433594 113.792969 11.886719 114.199219 11.359375 114.632812 C 10.832031 115.066406 10.328125 115.527344 9.847656 116.011719 C 9.367188 116.492188 8.910156 117 8.476562 117.527344 C 8.042969 118.054688 7.640625 118.601562 7.261719 119.167969 C 6.882812 119.738281 6.53125 120.320312 6.210938 120.921875 C 5.890625 121.523438 5.597656 122.140625 5.339844 122.773438 C 5.078125 123.402344 4.847656 124.042969 4.648438 124.695312 C 4.453125 125.347656 4.285156 126.011719 4.152344 126.679688 C 4.019531 127.347656 3.917969 128.023438 3.851562 128.699219 C 3.785156 129.378906 3.75 130.0625 3.75 130.742188 L 3.75 334.242188 C 3.75 334.925781 3.785156 335.605469 3.851562 336.28125 C 3.921875 336.960938 4.019531 337.632812 4.15625 338.300781 C 4.289062 338.96875 4.453125 339.628906 4.652344 340.28125 C 4.851562 340.933594 5.082031 341.574219 5.34375 342.203125 C 5.605469 342.832031 5.894531 343.449219 6.214844 344.046875 C 6.539062 344.648438 6.886719 345.234375 7.265625 345.800781 C 7.644531 346.367188 8.050781 346.910156 8.484375 347.4375 C 8.914062 347.964844 9.371094 348.46875 9.855469 348.953125 C 10.335938 349.433594 10.839844 349.890625 11.367188 350.324219 C 11.894531 350.753906 12.441406 351.160156 13.007812 351.539062 C 13.574219 351.917969 14.15625 352.269531 14.757812 352.589844 C 15.359375 352.910156 15.972656 353.203125 16.601562 353.464844 C 17.230469 353.726562 17.871094 353.953125 18.523438 354.152344 C 19.175781 354.351562 19.835938 354.515625 20.503906 354.652344 C 21.171875 354.785156 21.84375 354.886719 22.523438 354.953125 C 23.203125 355.019531 23.882812 355.054688 24.5625 355.054688 L 272.367188 355.054688 C 273.046875 355.054688 273.726562 355.023438 274.40625 354.957031 C 275.085938 354.890625 275.757812 354.789062 276.425781 354.65625 C 277.097656 354.527344 277.757812 354.359375 278.410156 354.164062 C 279.0625 353.964844 279.703125 353.734375 280.332031 353.476562 C 280.960938 353.214844 281.578125 352.921875 282.179688 352.601562 C 282.78125 352.28125 283.363281 351.929688 283.933594 351.550781 C 284.5 351.171875 285.046875 350.769531 285.574219 350.335938 C 286.101562 349.902344 286.605469 349.445312 287.085938 348.964844 C 287.570312 348.480469 288.027344 347.976562 288.457031 347.449219 C 288.890625 346.921875 289.296875 346.375 289.675781 345.808594 C 290.054688 345.242188 290.402344 344.65625 290.726562 344.058594 C 291.046875 343.457031 291.335938 342.839844 291.597656 342.210938 C 291.859375 341.578125 292.085938 340.9375 292.285156 340.285156 C 292.484375 339.632812 292.648438 338.972656 292.78125 338.304688 C 292.914062 337.636719 293.011719 336.960938 293.078125 336.285156 C 293.144531 335.605469 293.179688 334.925781 293.179688 334.242188 L 293.179688 318.96875 L 310.15625 318.96875 C 310.839844 318.96875 311.519531 318.9375 312.199219 318.871094 C 312.878906 318.804688 313.554688 318.703125 314.222656 318.570312 C 314.894531 318.441406 315.554688 318.273438 316.207031 318.078125 C 316.859375 317.878906 317.503906 317.652344 318.132812 317.390625 C 318.765625 317.128906 319.382812 316.839844 319.984375 316.519531 C 320.585938 316.199219 321.171875 315.847656 321.738281 315.46875 C 322.308594 315.089844 322.855469 314.683594 323.382812 314.253906 C 323.910156 313.820312 324.417969 313.363281 324.902344 312.882812 C 325.382812 312.398438 325.84375 311.894531 326.277344 311.367188 C 326.710938 310.839844 327.117188 310.292969 327.496094 309.726562 C 327.878906 309.160156 328.230469 308.578125 328.550781 307.976562 C 328.875 307.375 329.167969 306.757812 329.429688 306.128906 C 329.691406 305.5 329.921875 304.855469 330.121094 304.203125 C 330.320312 303.550781 330.488281 302.890625 330.621094 302.222656 C 330.757812 301.550781 330.859375 300.878906 330.925781 300.199219 C 330.996094 299.519531 331.03125 298.839844 331.03125 298.15625 L 331.03125 282.941406 L 348.007812 282.941406 C 348.691406 282.941406 349.375 282.90625 350.054688 282.839844 C 350.734375 282.769531 351.410156 282.667969 352.078125 282.535156 C 352.75 282.402344 353.410156 282.234375 354.066406 282.035156 C 354.71875 281.835938 355.359375 281.605469 355.992188 281.34375 C 356.621094 281.082031 357.238281 280.789062 357.84375 280.46875 C 358.445312 280.144531 359.03125 279.792969 359.597656 279.414062 C 360.164062 279.035156 360.714844 278.625 361.242188 278.191406 C 361.769531 277.757812 362.273438 277.300781 362.757812 276.816406 C 363.242188 276.335938 363.699219 275.828125 364.132812 275.300781 C 364.566406 274.773438 364.972656 274.226562 365.355469 273.65625 C 365.734375 273.089844 366.085938 272.503906 366.40625 271.902344 C 366.730469 271.300781 367.023438 270.683594 367.285156 270.050781 C 367.546875 269.421875 367.777344 268.777344 367.976562 268.125 C 368.175781 267.46875 368.339844 266.808594 368.476562 266.136719 C 368.609375 265.46875 368.710938 264.792969 368.777344 264.113281 C 368.847656 263.433594 368.882812 262.753906 368.882812 262.070312 L 368.882812 58.566406 C 368.882812 57.886719 368.847656 57.203125 368.777344 56.527344 C 368.710938 55.847656 368.609375 55.171875 368.472656 54.503906 C 368.339844 53.835938 368.171875 53.171875 367.972656 52.519531 C 367.773438 51.867188 367.542969 51.226562 367.28125 50.597656 C 367.019531 49.964844 366.726562 49.351562 366.402344 48.75 C 366.082031 48.148438 365.730469 47.5625 365.347656 46.996094 C 364.96875 46.429688 364.5625 45.882812 364.128906 45.355469 C 363.695312 44.828125 363.234375 44.324219 362.753906 43.84375 C 362.269531 43.359375 361.765625 42.902344 361.234375 42.472656 C 360.707031 42.039062 360.160156 41.632812 359.589844 41.253906 C 359.023438 40.875 358.4375 40.527344 357.835938 40.207031 C 357.234375 39.886719 356.617188 39.59375 355.984375 39.332031 C 355.355469 39.074219 354.714844 38.84375 354.058594 38.648438 C 353.40625 38.449219 352.746094 38.285156 352.074219 38.152344 C 351.40625 38.019531 350.730469 37.921875 350.050781 37.855469 C 349.371094 37.789062 348.691406 37.753906 348.007812 37.753906 Z M 281.007812 334.242188 C 281.003906 334.808594 280.949219 335.371094 280.835938 335.925781 C 280.722656 336.484375 280.558594 337.023438 280.339844 337.546875 C 280.125 338.070312 279.855469 338.566406 279.542969 339.039062 C 279.226562 339.507812 278.867188 339.945312 278.46875 340.34375 C 278.066406 340.746094 277.632812 341.105469 277.160156 341.417969 C 276.6875 341.734375 276.191406 342 275.667969 342.21875 C 275.144531 342.4375 274.605469 342.601562 274.050781 342.714844 C 273.492188 342.824219 272.933594 342.882812 272.367188 342.886719 L 24.5625 342.886719 C 23.996094 342.882812 23.433594 342.824219 22.878906 342.714844 C 22.324219 342.601562 21.785156 342.4375 21.261719 342.21875 C 20.738281 342 20.238281 341.734375 19.769531 341.417969 C 19.296875 341.105469 18.863281 340.746094 18.460938 340.34375 C 18.058594 339.945312 17.703125 339.507812 17.386719 339.039062 C 17.070312 338.566406 16.804688 338.070312 16.585938 337.546875 C 16.367188 337.023438 16.203125 336.484375 16.09375 335.925781 C 15.980469 335.371094 15.921875 334.808594 15.921875 334.242188 L 15.921875 130.742188 C 15.921875 130.171875 15.976562 129.609375 16.085938 129.050781 C 16.195312 128.492188 16.359375 127.949219 16.574219 127.425781 C 16.789062 126.898438 17.054688 126.398438 17.371094 125.925781 C 17.6875 125.449219 18.042969 125.011719 18.445312 124.605469 C 18.847656 124.203125 19.28125 123.84375 19.753906 123.523438 C 20.226562 123.207031 20.722656 122.9375 21.25 122.71875 C 21.773438 122.496094 22.316406 122.328125 22.871094 122.214844 C 23.429688 122.101562 23.992188 122.042969 24.5625 122.039062 L 272.367188 122.039062 C 272.933594 122.042969 273.5 122.101562 274.054688 122.214844 C 274.613281 122.328125 275.15625 122.496094 275.679688 122.71875 C 276.203125 122.9375 276.703125 123.207031 277.175781 123.523438 C 277.644531 123.84375 278.082031 124.203125 278.484375 124.605469 C 278.882812 125.011719 279.242188 125.449219 279.558594 125.925781 C 279.871094 126.398438 280.136719 126.898438 280.355469 127.425781 C 280.570312 127.949219 280.734375 128.492188 280.84375 129.050781 C 280.953125 129.609375 281.007812 130.171875 281.007812 130.742188 Z M 318.859375 298.15625 C 318.855469 298.726562 318.796875 299.289062 318.683594 299.847656 C 318.570312 300.402344 318.402344 300.945312 318.183594 301.46875 C 317.960938 301.996094 317.695312 302.492188 317.375 302.964844 C 317.058594 303.4375 316.695312 303.871094 316.292969 304.273438 C 315.890625 304.675781 315.449219 305.03125 314.976562 305.347656 C 314.5 305.664062 314 305.929688 313.476562 306.144531 C 312.949219 306.359375 312.40625 306.523438 311.847656 306.632812 C 311.289062 306.742188 310.726562 306.796875 310.15625 306.796875 L 293.179688 306.796875 L 293.179688 130.742188 C 293.179688 130.058594 293.144531 129.378906 293.082031 128.699219 C 293.015625 128.019531 292.914062 127.347656 292.78125 126.675781 C 292.648438 126.007812 292.484375 125.347656 292.289062 124.691406 C 292.089844 124.039062 291.859375 123.398438 291.601562 122.765625 C 291.339844 122.136719 291.050781 121.519531 290.726562 120.917969 C 290.40625 120.3125 290.058594 119.730469 289.679688 119.160156 C 289.300781 118.59375 288.894531 118.042969 288.464844 117.515625 C 288.03125 116.988281 287.574219 116.484375 287.089844 116 C 286.609375 115.515625 286.105469 115.058594 285.578125 114.625 C 285.050781 114.191406 284.503906 113.78125 283.9375 113.402344 C 283.371094 113.023438 282.785156 112.671875 282.183594 112.347656 C 281.582031 112.027344 280.96875 111.734375 280.339844 111.472656 C 279.707031 111.207031 279.066406 110.976562 278.414062 110.777344 C 277.761719 110.578125 277.101562 110.414062 276.429688 110.277344 C 275.761719 110.144531 275.085938 110.042969 274.410156 109.972656 C 273.730469 109.90625 273.046875 109.871094 272.367188 109.871094 L 53.773438 109.871094 L 53.773438 94.65625 C 53.773438 94.085938 53.828125 93.519531 53.941406 92.957031 C 54.050781 92.398438 54.21875 91.851562 54.4375 91.324219 C 54.652344 90.796875 54.921875 90.296875 55.238281 89.820312 C 55.558594 89.34375 55.917969 88.90625 56.320312 88.503906 C 56.726562 88.097656 57.164062 87.738281 57.640625 87.417969 C 58.117188 87.101562 58.617188 86.835938 59.144531 86.617188 C 59.671875 86.398438 60.21875 86.230469 60.777344 86.121094 C 61.339844 86.007812 61.902344 85.953125 62.476562 85.953125 L 310.15625 85.953125 C 310.730469 85.953125 311.292969 86.007812 311.855469 86.121094 C 312.414062 86.230469 312.960938 86.398438 313.488281 86.617188 C 314.015625 86.835938 314.515625 87.101562 314.992188 87.417969 C 315.46875 87.738281 315.90625 88.097656 316.3125 88.503906 C 316.714844 88.90625 317.074219 89.34375 317.394531 89.820312 C 317.710938 90.296875 317.976562 90.796875 318.195312 91.324219 C 318.414062 91.851562 318.582031 92.398438 318.691406 92.957031 C 318.804688 93.519531 318.859375 94.085938 318.859375 94.65625 Z M 318.859375 298.15625 " fill-opacity="1" fill-rule="nonzero"/></g><path fill="#29a385" d="M 122.644531 237.140625 C 122.957031 237.390625 123.289062 237.605469 123.644531 237.789062 C 124 237.972656 124.367188 238.117188 124.753906 238.230469 C 125.136719 238.339844 125.527344 238.410156 125.925781 238.445312 C 126.324219 238.476562 126.71875 238.472656 127.117188 238.425781 C 127.515625 238.382812 127.902344 238.296875 128.28125 238.175781 C 128.664062 238.054688 129.027344 237.898438 129.378906 237.703125 C 129.726562 237.511719 130.054688 237.285156 130.359375 237.027344 C 130.664062 236.769531 130.941406 236.484375 131.191406 236.171875 C 131.4375 235.859375 131.65625 235.527344 131.839844 235.171875 C 132.023438 234.816406 132.167969 234.449219 132.28125 234.066406 C 132.390625 233.679688 132.460938 233.289062 132.496094 232.890625 C 132.53125 232.496094 132.523438 232.097656 132.480469 231.699219 C 132.433594 231.304688 132.351562 230.914062 132.230469 230.535156 C 132.109375 230.152344 131.953125 229.789062 131.761719 229.4375 C 131.566406 229.089844 131.34375 228.761719 131.085938 228.457031 C 130.828125 228.152344 130.542969 227.875 130.230469 227.625 L 91.089844 196.40625 L 130.230469 165.1875 C 130.542969 164.9375 130.828125 164.660156 131.085938 164.355469 C 131.34375 164.050781 131.570312 163.722656 131.761719 163.371094 C 131.957031 163.023438 132.113281 162.65625 132.234375 162.277344 C 132.355469 161.894531 132.441406 161.507812 132.484375 161.109375 C 132.527344 160.714844 132.535156 160.316406 132.5 159.917969 C 132.46875 159.519531 132.394531 159.128906 132.285156 158.746094 C 132.175781 158.359375 132.027344 157.992188 131.84375 157.636719 C 131.660156 157.28125 131.445312 156.949219 131.195312 156.636719 C 130.945312 156.324219 130.667969 156.039062 130.363281 155.78125 C 130.058594 155.523438 129.730469 155.296875 129.382812 155.101562 C 129.03125 154.910156 128.667969 154.753906 128.285156 154.628906 C 127.90625 154.507812 127.515625 154.425781 127.117188 154.382812 C 126.722656 154.335938 126.324219 154.332031 125.925781 154.363281 C 125.527344 154.398438 125.136719 154.46875 124.753906 154.582031 C 124.371094 154.691406 124 154.835938 123.644531 155.019531 C 123.289062 155.203125 122.957031 155.421875 122.644531 155.667969 L 77.539062 191.648438 C 77.179688 191.933594 76.859375 192.253906 76.574219 192.609375 C 76.289062 192.96875 76.046875 193.351562 75.847656 193.765625 C 75.648438 194.175781 75.5 194.605469 75.398438 195.050781 C 75.296875 195.496094 75.246094 195.949219 75.246094 196.40625 C 75.246094 196.863281 75.296875 197.316406 75.398438 197.761719 C 75.5 198.207031 75.648438 198.636719 75.847656 199.046875 C 76.046875 199.457031 76.289062 199.84375 76.574219 200.199219 C 76.859375 200.558594 77.179688 200.878906 77.539062 201.164062 Z M 122.644531 237.140625 " fill-opacity="1" fill-rule="nonzero"/><path fill="#29a385" d="M 202.207031 155.667969 C 201.894531 155.421875 201.558594 155.203125 201.203125 155.023438 C 200.847656 154.839844 200.480469 154.691406 200.097656 154.582031 C 199.710938 154.472656 199.320312 154.402344 198.921875 154.367188 C 198.527344 154.332031 198.128906 154.339844 197.730469 154.382812 C 197.335938 154.429688 196.945312 154.511719 196.566406 154.632812 C 196.183594 154.757812 195.820312 154.914062 195.472656 155.105469 C 195.121094 155.300781 194.792969 155.527344 194.488281 155.78125 C 194.183594 156.039062 193.90625 156.324219 193.65625 156.636719 C 193.410156 156.949219 193.191406 157.285156 193.007812 157.636719 C 192.828125 157.992188 192.679688 158.363281 192.570312 158.746094 C 192.457031 159.128906 192.386719 159.519531 192.351562 159.917969 C 192.320312 160.316406 192.324219 160.714844 192.367188 161.109375 C 192.414062 161.507812 192.496094 161.898438 192.617188 162.277344 C 192.738281 162.65625 192.894531 163.023438 193.085938 163.371094 C 193.28125 163.722656 193.503906 164.050781 193.761719 164.355469 C 194.019531 164.660156 194.304688 164.9375 194.617188 165.1875 L 233.785156 196.40625 L 194.640625 227.625 C 194.328125 227.875 194.042969 228.152344 193.785156 228.457031 C 193.527344 228.761719 193.304688 229.089844 193.109375 229.4375 C 192.917969 229.789062 192.761719 230.152344 192.640625 230.535156 C 192.519531 230.914062 192.433594 231.304688 192.390625 231.699219 C 192.347656 232.097656 192.339844 232.496094 192.375 232.894531 C 192.40625 233.292969 192.480469 233.683594 192.589844 234.066406 C 192.703125 234.449219 192.847656 234.820312 193.03125 235.175781 C 193.214844 235.53125 193.429688 235.863281 193.679688 236.175781 C 193.929688 236.488281 194.207031 236.773438 194.511719 237.03125 C 194.816406 237.289062 195.144531 237.515625 195.492188 237.707031 C 195.84375 237.902344 196.207031 238.058594 196.589844 238.179688 C 196.96875 238.300781 197.359375 238.382812 197.753906 238.429688 C 198.152344 238.472656 198.550781 238.480469 198.949219 238.445312 C 199.34375 238.414062 199.738281 238.339844 200.121094 238.230469 C 200.503906 238.121094 200.875 237.972656 201.230469 237.789062 C 201.582031 237.605469 201.917969 237.390625 202.230469 237.140625 L 247.335938 201.164062 C 247.695312 200.878906 248.015625 200.558594 248.300781 200.199219 C 248.585938 199.84375 248.828125 199.457031 249.027344 199.046875 C 249.222656 198.636719 249.375 198.207031 249.476562 197.761719 C 249.578125 197.316406 249.628906 196.863281 249.628906 196.40625 C 249.628906 195.949219 249.578125 195.496094 249.476562 195.050781 C 249.375 194.605469 249.222656 194.175781 249.027344 193.765625 C 248.828125 193.351562 248.585938 192.96875 248.300781 192.609375 C 248.015625 192.253906 247.695312 191.933594 247.335938 191.648438 Z M 202.207031 155.667969 " fill-opacity="1" fill-rule="nonzero"/><path fill="#29a385" d="M 181.101562 142.074219 C 180.722656 141.945312 180.335938 141.851562 179.941406 141.796875 C 179.542969 141.746094 179.148438 141.730469 178.75 141.753906 C 178.347656 141.777344 177.957031 141.839844 177.570312 141.941406 C 177.183594 142.046875 176.8125 142.183594 176.453125 142.359375 C 176.09375 142.535156 175.753906 142.742188 175.4375 142.984375 C 175.117188 143.226562 174.828125 143.496094 174.5625 143.796875 C 174.296875 144.09375 174.066406 144.417969 173.863281 144.761719 C 173.660156 145.109375 173.496094 145.46875 173.367188 145.847656 L 139.96875 243.003906 C 139.84375 243.378906 139.753906 243.765625 139.703125 244.160156 C 139.652344 244.554688 139.640625 244.949219 139.667969 245.34375 C 139.695312 245.742188 139.761719 246.132812 139.863281 246.515625 C 139.96875 246.898438 140.105469 247.269531 140.28125 247.625 C 140.457031 247.980469 140.667969 248.316406 140.910156 248.632812 C 141.148438 248.949219 141.421875 249.238281 141.71875 249.5 C 142.015625 249.761719 142.335938 249.992188 142.679688 250.191406 C 143.023438 250.394531 143.382812 250.558594 143.757812 250.6875 C 144.136719 250.816406 144.519531 250.90625 144.914062 250.960938 C 145.308594 251.015625 145.703125 251.03125 146.097656 251.007812 C 146.496094 250.984375 146.886719 250.921875 147.269531 250.824219 C 147.65625 250.722656 148.027344 250.585938 148.382812 250.414062 C 148.742188 250.242188 149.078125 250.035156 149.398438 249.796875 C 149.714844 249.558594 150.007812 249.289062 150.269531 248.996094 C 150.535156 248.699219 150.769531 248.378906 150.972656 248.039062 C 151.175781 247.695312 151.34375 247.339844 151.476562 246.964844 L 184.878906 149.808594 C 185.011719 149.429688 185.101562 149.042969 185.15625 148.648438 C 185.210938 148.25 185.222656 147.855469 185.199219 147.457031 C 185.175781 147.054688 185.113281 146.664062 185.007812 146.277344 C 184.90625 145.890625 184.769531 145.519531 184.59375 145.160156 C 184.417969 144.800781 184.207031 144.460938 183.964844 144.144531 C 183.722656 143.824219 183.453125 143.535156 183.152344 143.269531 C 182.855469 143.003906 182.53125 142.769531 182.1875 142.570312 C 181.839844 142.371094 181.480469 142.203125 181.101562 142.074219 Z M 181.101562 142.074219 " fill-opacity="1" fill-rule="nonzero"/><path fill="#29a385" d="M 134.222656 273.753906 L 53.40625 273.753906 C 53.007812 273.753906 52.613281 273.792969 52.222656 273.871094 C 51.828125 273.949219 51.449219 274.0625 51.078125 274.214844 C 50.710938 274.371094 50.359375 274.558594 50.027344 274.777344 C 49.695312 275 49.386719 275.253906 49.105469 275.535156 C 48.824219 275.816406 48.570312 276.125 48.347656 276.457031 C 48.125 276.789062 47.9375 277.140625 47.785156 277.511719 C 47.632812 277.878906 47.515625 278.257812 47.4375 278.652344 C 47.363281 279.042969 47.324219 279.4375 47.324219 279.839844 L 47.324219 317.144531 C 47.324219 317.542969 47.363281 317.9375 47.4375 318.332031 C 47.515625 318.722656 47.632812 319.101562 47.785156 319.472656 C 47.9375 319.839844 48.125 320.191406 48.347656 320.523438 C 48.570312 320.855469 48.824219 321.164062 49.105469 321.445312 C 49.386719 321.730469 49.695312 321.980469 50.027344 322.203125 C 50.359375 322.425781 50.710938 322.613281 51.078125 322.765625 C 51.449219 322.917969 51.828125 323.035156 52.222656 323.113281 C 52.613281 323.191406 53.007812 323.230469 53.40625 323.230469 L 134.222656 323.230469 C 134.625 323.230469 135.019531 323.191406 135.410156 323.113281 C 135.804688 323.035156 136.183594 322.917969 136.554688 322.765625 C 136.921875 322.613281 137.273438 322.425781 137.605469 322.203125 C 137.9375 321.980469 138.246094 321.730469 138.527344 321.445312 C 138.808594 321.164062 139.0625 320.855469 139.285156 320.523438 C 139.507812 320.191406 139.695312 319.839844 139.847656 319.472656 C 140 319.101562 140.113281 318.722656 140.191406 318.332031 C 140.269531 317.9375 140.308594 317.542969 140.308594 317.144531 L 140.308594 279.839844 C 140.308594 279.4375 140.269531 279.042969 140.191406 278.652344 C 140.113281 278.257812 140 277.878906 139.847656 277.511719 C 139.695312 277.140625 139.507812 276.789062 139.285156 276.457031 C 139.0625 276.125 138.808594 275.816406 138.527344 275.535156 C 138.246094 275.253906 137.9375 275 137.605469 274.777344 C 137.273438 274.558594 136.921875 274.371094 136.554688 274.214844 C 136.183594 274.0625 135.804688 273.949219 135.410156 273.871094 C 135.019531 273.792969 134.625 273.753906 134.222656 273.753906 Z M 128.136719 311.058594 L 59.492188 311.058594 L 59.492188 285.925781 L 128.136719 285.925781 Z M 128.136719 311.058594 " fill-opacity="1" fill-rule="nonzero"/></svg>